<svg width="41" height="40" viewBox="0 0 41 40" fill="none" xmlns="http://www.w3.org/2000/svg"><g clip-path="url(#clip0_2578_16622)"><g clip-path="url(#clip1_2578_16622)" stroke="#222325" stroke-width="1.6" stroke-linecap="round" stroke-linejoin="round"><path d="M35.263 16.03v15.61a2.987 2.987 0 01-2.986 2.988H8.388a2.987 2.987 0 01-2.986-2.989V11.05a2.987 2.987 0 012.986-2.988h13.935"/><path d="M12.371 28.318L23.32 17.36l5.972 10.96h-16.92zm.496-8.966a2.49 2.49 0 002.489-2.491 2.49 2.49 0 10-2.489 2.49z"/></g><path d="M35.262 11.048a4.98 4.98 0 00-4.977 4.981 4.98 4.98 0 00-4.976-4.981 4.98 4.98 0 004.976-4.982 4.98 4.98 0 004.977 4.982z" fill="#222325"/><path fill-rule="evenodd" clip-rule="evenodd" d="M30.287 5.07c.55 0 .995.446.995.997 0 2.2 1.783 3.985 3.981 3.985a.996.996 0 010 1.992 3.984 3.984 0 00-3.981 3.985.996.996 0 11-1.99 0c0-2.2-1.784-3.985-3.982-3.985a.996.996 0 010-1.992 3.984 3.984 0 003.981-3.985c0-.55.446-.997.995-.997zm0 4.302a6.01 6.01 0 01-1.675 1.676 6.008 6.008 0 011.675 1.676 6.008 6.008 0 011.674-1.676 6.01 6.01 0 01-1.674-1.676z" fill="#222325"/></g><defs><clipPath id="clip0_2578_16622"><path fill="#fff" transform="translate(4.406 4.074)" d="M0 0h31.851v33.209H0z"/></clipPath><clipPath id="clip1_2578_16622"><path fill="#fff" transform="translate(4.406 5.403)" d="M0 0h31.851v31.881H0z"/></clipPath></defs></svg>