<svg width="41" height="40" viewBox="0 0 41 40" fill="none" xmlns="http://www.w3.org/2000/svg"><g style="mix-blend-mode:darken" stroke="#212121" stroke-width="1.6" stroke-linecap="round" stroke-linejoin="round"><path d="M15.444 25.066a3.733 3.733 0 100-7.466 3.733 3.733 0 000 7.466zm-7.465 11.2a7.466 7.466 0 017.466-7.467 7.466 7.466 0 017.467 7.467"/><path d="M17 10.132H5.667A2.667 2.667 0 003 12.799v20.8a2.667 2.667 0 002.667 2.666H33a2.667 2.667 0 002.667-2.666V21.332"/><path d="M21.572 5.155v8.711a2.488 2.488 0 002.49 2.489h1.244v3.733l6.222-3.733h4.978a2.488 2.488 0 002.489-2.489V5.155a2.488 2.488 0 00-2.49-2.489H24.062a2.488 2.488 0 00-2.489 2.489z"/><path d="M27.8 10.444l1.866 1.866 3.673-4.284.06-.071"/></g></svg>